<?xml version="1.0" encoding="utf-8"?>
<!-- Generator: Adobe Illustrator 16.0.0, SVG Export Plug-In . SVG Version: 6.00 Build 0)  -->
<!DOCTYPE svg PUBLIC "-//W3C//DTD SVG 1.1//EN" "http://www.w3.org/Graphics/SVG/1.1/DTD/svg11.dtd">
<svg version="1.1" id="图层_1" xmlns:serif="http://www.serif.com/"
	 xmlns="http://www.w3.org/2000/svg" xmlns:xlink="http://www.w3.org/1999/xlink" x="0px" y="0px" width="456px" height="456px"
	 viewBox="0 0 456 456" enable-background="new 0 0 456 456" xml:space="preserve">
<g>
	<path fill="#FFFFFF" d="M169.823,186.168l1.368-11.81c-1.512,2.017-3.097,3.745-4.607,5.329c-1.8-1.513-5.833-4.032-8.138-5.257
		c6.553-5.544,12.817-14.761,16.417-23.689l9.073,2.664c-0.792,1.8-1.656,3.601-2.592,5.4h41.691v7.704h-46.229l-3.023,4.465h42.124
		c0,0-0.072,2.736-0.072,3.816l-0.36,11.377h10.369v7.705h-10.729l-0.505,7.849h8.065v7.488h-8.929
		c-0.504,3.097-1.152,4.896-1.944,5.977c-1.584,2.376-3.528,3.096-5.977,3.456c-2.376,0.36-5.978,0.36-9.722,0.145
		c-0.071-1.872-0.936-4.753-2.016-6.625c3.24,0.288,6.048,0.36,7.561,0.288c1.225,0,1.872-0.144,2.593-1.152
		c0.287-0.432,0.575-1.08,0.863-2.088H175.08l-0.504,2.88l-8.785-0.647c1.008-4.825,2.016-11.018,3.023-17.569h-10.081v-7.705
		L169.823,186.168L169.823,186.168z M186.168,193.585h-8.713l-1.225,8.137H192c-2.521-1.944-5.762-3.961-8.642-5.401
		L186.168,193.585z M187.248,178.535h-7.921l-0.937,7.921h14.257c-2.447-1.8-5.544-3.744-8.353-5.041L187.248,178.535z
		 M206.69,193.585h-14.904c3.168,1.8,6.407,3.888,8.279,5.688l-2.376,2.448h8.425L206.69,193.585z M192.576,178.535
		c3.168,1.656,6.336,3.744,8.208,5.473l-2.448,2.448h8.641l0.216-7.921H192.576z"/>
	<path fill="#FFFFFF" d="M289.563,155.565v62.285h-9.289v-4.608h-32.114v4.753h-8.856v-62.43H289.563z M280.274,179.76v-15.481
		h-32.114v15.481H280.274z M248.158,204.529h32.114v-16.273h-32.114V204.529z"/>
	<path fill="#FFFFFF" d="M222.675,286.249c-3.96,2.81-8.713,5.616-13.033,7.92c4.608,1.729,10.009,2.881,16.058,3.529
		c-1.801,1.8-4.104,5.327-5.185,7.561c-11.017-1.729-19.586-5.329-25.851-11.233c-2.448-2.23-4.536-4.896-6.265-7.849h-9.217v9.146
		l15.481-1.297l0.071,7.418c-10.729,1.15-22.105,2.23-30.387,3.096l-1.152-7.92l7.489-0.576v-34.854
		c-2.52,1.369-5.185,2.664-7.775,3.816c-1.08-2.016-3.313-5.328-5.041-7.128c11.952-4.608,23.617-13.104,29.307-20.522h8.712
		c8.065,9.074,19.586,16.203,30.891,19.803c-2.016,2.089-4.031,5.185-5.472,7.633c-2.521-1.08-5.113-2.304-7.776-3.744v22.825
		l2.735-2.16L222.675,286.249z M202.801,254.352v3.672h-21.746v-3.385c-3.024,2.16-6.337,4.248-9.721,6.192h41.836
		C209.642,258.887,206.114,256.654,202.801,254.352z M204.817,266.951h-25.634v3.527h25.634V266.951z M179.183,276.096v3.889h25.634
		v-3.889H179.183z M184.079,252.334h15.984c-3.168-2.448-5.976-4.896-8.137-7.345C189.84,247.365,187.176,249.886,184.079,252.334z
		 M210.146,286.177h-12.889c1.512,1.729,3.313,3.24,5.399,4.608C205.105,289.417,207.77,287.833,210.146,286.177z"/>
	<path fill="#FFFFFF" d="M247.151,259.822v28.441l4.682-3.384c0.576,2.304,1.8,5.688,2.664,7.345
		c-11.448,8.568-13.753,10.226-14.979,11.81c-0.647-2.089-2.447-5.546-3.815-7.201c1.513-1.008,3.385-3.168,3.385-6.408v-22.536
		h-8.354v-8.065L247.151,259.822L247.151,259.822z M239.086,238.869c3.6,3.384,8.496,8.137,10.801,11.305l-6.192,5.762
		c-2.089-3.313-6.769-8.354-10.368-12.099L239.086,238.869z M256.799,253.414h-4.464v-6.984h10.009
		c-1.08-2.017-2.592-4.32-4.104-6.121l6.266-3.022c2.16,2.376,4.607,5.76,5.617,8.137l-1.945,1.009h9.434
		c1.656-2.81,3.386-6.338,4.466-9.002l7.416,2.448l-4.466,6.554h10.226v6.983H284.02v11.881h14.113v6.984h-48.604v-6.984h13.97
		v-11.881h-6.337c2.231,2.448,4.681,5.903,5.761,8.209l-5.832,3.528c-0.938-2.449-3.313-6.049-5.545-8.713L256.799,253.414z
		 M292.371,275.376v29.45h-7.993v-3.098H263.28v3.313h-7.561v-29.666H292.371L292.371,275.376z M284.378,285.527v-3.672H263.28
		v3.672H284.378z M263.28,295.682h21.1v-4.104h-21.1V295.682z M271.129,265.295h5.184v-11.881h-5.184V265.295z M296.259,256.438
		c-2.16,3.098-4.464,6.336-6.192,8.496l-5.399-2.592c1.729-2.376,3.889-6.265,5.111-8.929L296.259,256.438z"/>
</g>
</svg>
